<svg width="404" height="128" viewBox="0 0 404 128" fill="none" xmlns="http://www.w3.org/2000/svg">
<path d="M46.3933 63.7851C46.3933 46.6749 59.309 32.5812 75.9228 30.7218C70.258 20.4546 59.3269 13.5 46.7713 13.5C28.459 13.5 13.602 28.2943 13.5005 46.5828L13.5 46.7713V81.555L46.9604 114.259L46.3933 79.6646L46.3933 63.7851Z" fill="black"/>
<path d="M79.8537 46.7713C98.038 46.7713 112.815 61.3594 113.12 79.4709L113.125 79.4756V114.07L79.6646 81.366L79.8537 46.7713Z" fill="black"/>
<path d="M191.023 67.7344C190.555 66.1098 189.899 64.6745 189.053 63.4283C188.208 62.1598 187.173 61.0916 185.949 60.2237C184.747 59.3336 183.367 58.6548 181.81 58.1875C180.274 57.7202 178.572 57.4865 176.702 57.4865C173.209 57.4865 170.138 58.3544 167.489 60.0902C164.863 61.826 162.816 64.3518 161.347 67.6676C159.879 70.9612 159.144 74.9891 159.144 79.7514C159.144 84.5137 159.867 88.5639 161.314 91.902C162.76 95.2401 164.808 97.7881 167.456 99.5462C170.104 101.282 173.231 102.15 176.836 102.15C180.107 102.15 182.9 101.571 185.214 100.414C187.551 99.2346 189.331 97.5767 190.555 95.4403C191.802 93.304 192.425 90.7782 192.425 87.8629L195.362 88.2969H177.737V77.4148H206.344V86.027C206.344 92.0355 205.076 97.1984 202.539 101.516C200.002 105.811 196.508 109.126 192.058 111.463C187.607 113.777 182.511 114.935 176.769 114.935C170.36 114.935 164.73 113.522 159.879 110.695C155.027 107.847 151.244 103.808 148.529 98.5781C145.836 93.3262 144.49 87.0952 144.49 79.8849C144.49 74.3437 145.291 69.4034 146.893 65.0639C148.518 60.7022 150.788 57.008 153.703 53.9815C156.618 50.955 160.012 48.6518 163.884 47.0717C167.756 45.4917 171.951 44.7017 176.469 44.7017C180.341 44.7017 183.946 45.2692 187.284 46.4041C190.622 47.5168 193.582 49.0968 196.163 51.1442C198.767 53.1915 200.892 55.6283 202.539 58.4545C204.186 61.2585 205.243 64.3518 205.71 67.7344H191.023Z" fill="black"/>
<path d="M216.934 114V62.7273H230.721V71.6733H231.255C232.189 68.491 233.758 66.0876 235.961 64.4631C238.165 62.8163 240.702 61.9929 243.572 61.9929C244.284 61.9929 245.052 62.0374 245.876 62.1264C246.699 62.2154 247.422 62.3378 248.045 62.4936V75.1115C247.378 74.9112 246.454 74.7332 245.275 74.5774C244.095 74.4216 243.016 74.3438 242.037 74.3438C239.945 74.3438 238.076 74.8 236.429 75.7124C234.804 76.6025 233.514 77.8487 232.557 79.451C231.622 81.0533 231.155 82.9003 231.155 84.9922V114H216.934Z" fill="black"/>
<path d="M255.397 114V62.7273H269.618V114H255.397ZM262.541 56.1179C260.427 56.1179 258.613 55.4169 257.1 54.0149C255.609 52.5907 254.863 50.8883 254.863 48.9077C254.863 46.9493 255.609 45.2692 257.1 43.8672C258.613 42.4429 260.427 41.7308 262.541 41.7308C264.655 41.7308 266.457 42.4429 267.948 43.8672C269.462 45.2692 270.218 46.9493 270.218 48.9077C270.218 50.8883 269.462 52.5907 267.948 54.0149C266.457 55.4169 264.655 56.1179 262.541 56.1179Z" fill="black"/>
<path d="M299.902 114.835C296.008 114.835 292.481 113.833 289.32 111.83C286.183 109.805 283.69 106.834 281.843 102.918C280.018 98.9787 279.106 94.1496 279.106 88.4304C279.106 82.5554 280.052 77.6707 281.943 73.7763C283.835 69.8596 286.35 66.9332 289.487 64.9972C292.647 63.0388 296.108 62.0597 299.869 62.0597C302.74 62.0597 305.132 62.5492 307.046 63.5284C308.982 64.4853 310.539 65.687 311.719 67.1335C312.921 68.5578 313.833 69.9598 314.456 71.3395H314.89V45.6364H329.077V114H315.057V105.788H314.456C313.789 107.213 312.843 108.626 311.619 110.028C310.417 111.407 308.848 112.554 306.912 113.466C304.998 114.378 302.662 114.835 299.902 114.835ZM304.409 103.518C306.701 103.518 308.637 102.895 310.217 101.649C311.819 100.381 313.043 98.6115 313.889 96.3416C314.757 94.0717 315.191 91.4124 315.191 88.3636C315.191 85.3149 314.768 82.6667 313.922 80.419C313.076 78.1714 311.852 76.4356 310.25 75.2116C308.648 73.9877 306.701 73.3757 304.409 73.3757C302.072 73.3757 300.102 74.0099 298.5 75.2784C296.898 76.5469 295.685 78.3049 294.862 80.5526C294.038 82.8002 293.627 85.4039 293.627 88.3636C293.627 91.3456 294.038 93.9827 294.862 96.2749C295.707 98.5447 296.92 100.325 298.5 101.616C300.102 102.884 302.072 103.518 304.409 103.518Z" fill="black"/>
<path d="M355.389 114.968C352.118 114.968 349.203 114.401 346.643 113.266C344.084 112.108 342.059 110.406 340.568 108.158C339.099 105.888 338.365 103.062 338.365 99.6797C338.365 96.8312 338.888 94.4389 339.934 92.5028C340.98 90.5668 342.404 89.009 344.207 87.8295C346.009 86.6501 348.057 85.7599 350.349 85.1591C352.663 84.5582 355.089 84.1354 357.626 83.8906C360.608 83.5791 363.011 83.2898 364.836 83.0227C366.661 82.7334 367.985 82.3106 368.808 81.7543C369.632 81.1979 370.043 80.3745 370.043 79.2841V79.0838C370.043 76.9697 369.376 75.334 368.04 74.1768C366.727 73.0196 364.858 72.441 362.433 72.441C359.873 72.441 357.837 73.0085 356.324 74.1435C354.811 75.2562 353.809 76.6581 353.32 78.3494L340.168 77.2812C340.835 74.1657 342.148 71.473 344.107 69.2031C346.065 66.911 348.591 65.1529 351.684 63.929C354.799 62.6828 358.405 62.0597 362.499 62.0597C365.348 62.0597 368.074 62.3935 370.678 63.0611C373.303 63.7287 375.629 64.7635 377.654 66.1655C379.701 67.5675 381.315 69.37 382.494 71.5732C383.674 73.754 384.263 76.3688 384.263 79.4176V114H370.778V106.89H370.377C369.554 108.492 368.452 109.905 367.072 111.129C365.693 112.331 364.035 113.277 362.099 113.967C360.163 114.634 357.926 114.968 355.389 114.968ZM359.462 105.154C361.554 105.154 363.401 104.742 365.003 103.919C366.605 103.073 367.862 101.938 368.775 100.514C369.687 99.09 370.143 97.4766 370.143 95.674V90.233C369.698 90.5223 369.086 90.7893 368.308 91.0341C367.551 91.2566 366.694 91.468 365.737 91.6683C364.78 91.8463 363.823 92.0133 362.866 92.169C361.91 92.3026 361.042 92.425 360.263 92.5362C358.594 92.781 357.136 93.1705 355.89 93.7045C354.644 94.2386 353.676 94.9619 352.986 95.8743C352.296 96.7644 351.951 97.8771 351.951 99.2124C351.951 101.148 352.652 102.628 354.054 103.652C355.478 104.653 357.281 105.154 359.462 105.154Z" fill="black"/>
</svg>
