<svg width="463" height="369" viewBox="0 0 463 369" fill="none" xmlns="http://www.w3.org/2000/svg">
<g clip-path="url(#clip0_1_40)">
<path d="M46 100L46 46H100V7.95547e-06L4.37114e-06 0L5.56443e-07 100H46Z" fill="black"/>
<path d="M363 46L417 46V100L463 100V2.8384e-05L363 1.96417e-05V46Z" fill="black"/>
<path d="M463 369V269H417V323H363V369L463 369Z" fill="black"/>
<path d="M4.37114e-06 369H100L100 323H46L46 269H0L4.37114e-06 369Z" fill="black"/>
<path d="M46 268.771V99.3168H92.0043V165.51H152.902V99.3168H198.906V268.771H152.902V202.578H92.0043V268.771H46Z" fill="black"/>
<path d="M221.081 268.771V235.675L284.295 183.382C288.488 179.907 292.073 176.652 295.052 173.619C298.086 170.53 300.402 167.358 302.002 164.103C303.657 160.849 304.484 157.236 304.484 153.264C304.484 148.907 303.547 145.183 301.671 142.094C299.851 139.005 297.313 136.633 294.059 134.978C290.804 133.268 287.054 132.413 282.806 132.413C278.559 132.413 274.808 133.268 271.553 134.978C268.354 136.688 265.872 139.198 264.107 142.508C262.341 145.817 261.459 149.844 261.459 154.588H217.771C217.771 142.673 220.447 132.413 225.797 123.808C231.148 115.203 238.705 108.584 248.468 103.95C258.232 99.3168 269.678 97 282.806 97C296.376 97 308.125 99.1789 318.054 103.537C328.038 107.839 335.733 113.907 341.139 121.74C346.6 129.573 349.33 138.757 349.33 149.293C349.33 155.802 347.979 162.283 345.276 168.737C342.573 175.136 337.719 182.224 330.713 190.001C323.708 197.779 313.751 207.046 300.844 217.803L284.957 231.041V232.034H351.151V268.771H221.081Z" fill="black"/>
<path d="M417.385 99.3168V268.771H371.381V99.3168H417.385Z" fill="black"/>
</g>
<defs>
<clipPath id="clip0_1_40">
<rect width="463" height="369" fill="white"/>
</clipPath>
</defs>
</svg>
